<svg id="Layer_5" enable-background="new 0 0 64 64" viewBox="0 0 64 64" xmlns="http://www.w3.org/2000/svg"><g><path style="fill:#ffffff;" d="m63 25c0-.917-.389-1.796-1.067-2.413l-2.933-2.666v-15.921c0-1.654-1.346-3-3-3h-52c-1.654 0-3 1.346-3 3v13 2 23c0 1.654 1.346 3 3 3h3.051c-.02.333-.051.662-.051 1 0 9.374 7.626 17 17 17s17-7.626 17-17c0-.338-.031-.667-.051-1h15.051c1.654 0 3-1.346 3-3v-11.921l2.933-2.666c.678-.617 1.067-1.496 1.067-2.413zm-59-22h52c.551 0 1 .449 1 1v5h-25.5l-3 4h-25.5v-9c0-.551.449-1 1-1zm20 58c-2.232 0-4.254-2.387-5.546-6h11.093c-1.293 3.613-3.315 6-5.547 6zm-6.159-8c-.462-1.821-.746-3.858-.816-6h13.951c-.07 2.142-.354 4.179-.816 6zm-8.79-6h5.975c.063 2.139.322 4.16.752 6h-5.034c-.961-1.812-1.55-3.845-1.693-6zm7.973-2c.07-2.142.354-4.179.816-6h12.319c.462 1.821.746 3.858.816 6zm15.95 2h5.975c-.143 2.155-.732 4.188-1.693 6h-5.034c.43-1.84.689-3.861.752-6zm0-2c-.063-2.139-.322-4.16-.752-6h5.034c.961 1.812 1.55 3.845 1.693 6zm-1.31-8c-.658-2.023-1.528-3.762-2.566-5.089 2.759 1.002 5.137 2.785 6.874 5.089zm-2.118 0h-11.092c1.292-3.613 3.314-6 5.546-6s4.254 2.387 5.546 6zm-13.21 0h-4.308c1.736-2.304 4.115-4.087 6.874-5.089-1.038 1.327-1.908 3.066-2.566 5.089zm-5.592 2h5.034c-.43 1.84-.689 3.861-.752 6h-5.975c.143-2.155.732-4.188 1.693-6zm1.284 16h4.308c.658 2.023 1.528 3.762 2.566 5.089-2.759-1.002-5.137-2.785-6.874-5.089zm17.07 5.089c1.038-1.327 1.908-3.066 2.566-5.089h4.308c-1.737 2.304-4.115 4.087-6.874 5.089zm31.489-34.156-8.587 7.806v-2.739h-16v2h14v5.261l7-6.364v10.103c0 .552-.449 1-1 1h-15.281c-1.423-7.946-8.37-14-16.719-14s-15.296 6.054-16.719 14h-3.281c-.551 0-1-.448-1-1v-23-2-2h26.5l3-4h24.5v7.103l-7-6.363v5.26h-41v2h43v-2.74l8.587 7.807c.263.239.413.579.413.933s-.15.694-.413.933z"/><path style="fill:#ffffff;" d="m5 17h2v2h-2z"/><path style="fill:#ffffff;" d="m11 5h-6v6h6zm-2 4h-2v-2h2z"/><path style="fill:#ffffff;" d="m19 5h-6v6h6zm-2 4h-2v-2h2z"/><path style="fill:#ffffff;" d="m27 5h-6v6h6zm-2 4h-2v-2h2z"/></g></svg>