<svg id="Layer_1" height="512" viewBox="0 0 128 128" width="512" xmlns="http://www.w3.org/2000/svg" data-name="Layer 1">
<path style="fill:#00ff00;" d="m114.99 94.126a1.714 1.714 0 0 0 .315-.547 59.033 59.033 0 0 0 0-59.158 1.714 1.714 0 0 0 -.315-.547 59.5 59.5 0 0 0 -34.526-26.774 1.727 1.727 0 0 0 -.464-.137 58.941 58.941 0 0 0 -32 0 1.76 1.76 0 0 0 -.458.13 59.493 59.493 0 0 0 -34.532 26.781 1.714 1.714 0 0 0 -.315.547 59.033 59.033 0 0 0 0 59.158 1.714 1.714 0 0 0 .315.547 59.494 59.494 0 0 0 34.5 26.772 1.763 1.763 0 0 0 .481.137 58.944 58.944 0 0 0 32.01 0 1.747 1.747 0 0 0 .505-.143 59.5 59.5 0 0 0 34.484-26.766zm-49.24 25.58v-24.956h23.913c-2.6 9.51-6.341 17.412-10.891 23a55.542 55.542 0 0 1 -13.022 1.956zm-16.522-1.958c-4.55-5.586-8.291-13.487-10.891-23h23.913v24.956a55.542 55.542 0 0 1 -13.022-1.956zm-40.934-52h7.706v13.752a1.751 1.751 0 0 0 1.75 1.75h14.315c.464 3.423 1.066 6.77 1.8 10h-18.475a55.363 55.363 0 0 1 -7.096-25.5zm7.1-29h18.472c-.735 3.23-1.337 6.578-1.8 10h-14.316a1.751 1.751 0 0 0 -1.75 1.752v13.75h-7.706a55.363 55.363 0 0 1 7.096-25.5zm46.856-28.454v24.956h-23.913c2.6-9.51 6.341-17.412 10.891-23a55.542 55.542 0 0 1 13.022-1.956zm16.522 1.958c4.55 5.586 8.291 13.487 10.891 23h-23.913v-24.958a55.542 55.542 0 0 1 13.022 1.958zm40.934 52h-7.706v-13.752a1.751 1.751 0 0 0 -1.75-1.75h-14.315c-.464-3.423-1.066-6.77-1.8-10h18.475a55.363 55.363 0 0 1 7.096 25.5zm-7.1 29h-18.472c.735-3.23 1.337-6.578 1.8-10h14.316a1.751 1.751 0 0 0 1.75-1.752v-13.75h7.706a55.363 55.363 0 0 1 -7.096 25.5zm-46.86 0v-10h26.654c-.479 3.431-1.1 6.779-1.862 10zm-46.246-13.502v-27.5h89v27.5zm72.9-31h-26.65v-10h24.791c.759 3.22 1.382 6.569 1.859 10zm-30.153-10v10h-26.647c.479-3.431 1.1-6.779 1.862-10zm-26.647 44.5h26.65v10h-24.791c-.759-3.221-1.382-6.569-1.859-10zm48.856 34.6a74.1 74.1 0 0 0 8.83-21.1h17.189a56.049 56.049 0 0 1 -26.022 21.096zm26.019-82.6h-17.192a74.164 74.164 0 0 0 -8.83-21.1 56.058 56.058 0 0 1 26.019 21.1zm-66.925-21.1a74.148 74.148 0 0 0 -8.83 21.1h-17.192a56.051 56.051 0 0 1 26.019-21.097zm-26.022 82.6h17.189a74.116 74.116 0 0 0 8.829 21.1 56.058 56.058 0 0 1 -26.018-21.1z"/>
<path style="fill:#00ff00;" d="m45.789 67.188-3.478-10.563h-2.92l-3.499 10.563-3.156-10.563h-2.942l4.681 14.75h2.662l3.714-10.949 3.693 10.949h2.684l4.658-14.75h-2.941z"/>
<path style="fill:#00ff00;" d="m67.704 71.375h2.683l4.659-14.75h-2.942l-3.155 10.563-3.478-10.563h-2.92l-3.5 10.563-3.155-10.563h-2.942l4.68 14.75h2.663l3.714-10.949z"/>
<path style="fill:#00ff00;" d="m83.457 71.375 3.713-10.949 3.693 10.949h2.684l4.659-14.75h-2.942l-3.156 10.563-3.478-10.563h-2.92l-3.499 10.563-3.156-10.563h-2.941l4.68 14.75z"/>
</svg>