<svg id="Capa_1" enable-background="new 0 0 512 512" height="512" viewBox="0 0 512 512" width="512" xmlns="http://www.w3.org/2000/svg"><g><path style="fill:#00ff00;" d="m473.393 86.681c-2.628-1.241-5.741-.851-7.987.996-.447.368-45.384 36.785-105.489 36.785-16.041 0-32.381-2.58-48.649-7.658v-49.129c0-2.24-.999-4.363-2.725-5.791-1.388-1.149-34.568-28.23-83.782-37.32-4.086-.751-8.001 1.943-8.754 6.025-.754 4.081 1.943 8.001 6.024 8.754 37.595 6.945 65.642 25.752 74.208 32.043v197.447c-18.414-11.855-55.944-31.462-102.757-31.462-46.818 0-84.346 19.608-102.757 31.463v-197.444c10.615-7.783 51.079-34.703 102.757-34.703 4.151 0 7.515-3.364 7.515-7.515s-3.364-7.515-7.515-7.515c-46.819 0-84.346 19.608-102.757 31.463v-24.906c-.001-15.558-12.658-28.214-28.214-28.214-15.558 0-28.215 12.656-28.215 28.214v316.791c0 4.151 3.364 7.515 7.515 7.515s7.515-3.364 7.515-7.515v-316.791c0-7.27 5.915-13.185 13.185-13.185s13.184 5.915 13.184 13.185v466.251c0 1.382-1.123 2.505-2.505 2.505h-21.359c-1.382 0-2.505-1.123-2.505-2.505v-119.401c0-4.151-3.364-7.515-7.515-7.515s-7.515 3.364-7.515 7.515v119.402c0 9.668 7.866 17.534 17.534 17.534h21.36c9.668 0 17.534-7.866 17.534-17.534v-207.361c10.615-7.783 51.079-34.704 102.757-34.704 17.801 0 34.271 3.195 48.65 7.701v46.4c0 2.24.999 4.363 2.725 5.79 1.985 1.643 49.388 40.227 115.06 40.227 4.151 0 7.515-3.364 7.515-7.515s-3.364-7.515-7.515-7.515c-42.989 0-78.201-18.622-94.94-29.365l41.729-17.824c.025-.011.045-.028.069-.04.059-.026.12-.044.178-.072 2.634-1.24 4.315-3.889 4.315-6.799v-150.9c16.243 4.644 32.564 7.001 48.649 7.001 46.813 0 84.344-19.606 102.758-31.461v194.76c-8.572 6.296-36.611 25.095-74.197 32.041-4.081.754-6.778 4.674-6.023 8.755.669 3.619 3.828 6.15 7.381 6.15.453 0 .913-.041 1.375-.126 49.206-9.094 82.381-36.17 83.769-37.318 1.726-1.428 2.725-3.551 2.725-5.79v-213.027c0-2.909-1.682-5.552-4.311-6.793zm-184.967 195.085-31.266 13.354v-29.586c13.307 5.454 24.017 11.58 31.266 16.232z"/></g></svg>